<?xml version='1.0' encoding='utf-8'?>
<mxfile host="app.diagrams.net" modified="2025-05-16T08:30:00.000Z" agent="Mozilla/5.0" etag="abc123" version="21.3.7"><diagram id="C5RBs43oDa-KdzZeNtuy" name="システムアーキテクチャ"><mxGraphModel dx="1223" dy="871" grid="1" gridSize="10" guides="1" tooltips="1" connect="1" arrows="1" fold="1" page="1" pageScale="1" pageWidth="827" pageHeight="1169" math="0" shadow="0"><root><mxCell id="WIyWlLk6GJQsqaUBKTNV-0" /><mxCell id="WIyWlLk6GJQsqaUBKTNV-1" parent="WIyWlLk6GJQsqaUBKTNV-0" /><mxCell id="windows_host" value="Windows ホストシステム" style="rounded=1;whiteSpace=wrap;html=1;fontSize=16;fillColor=#dae8fc;strokeColor=#6c8ebf;verticalAlign=top;fontStyle=1" vertex="1" parent="WIyWlLk6GJQsqaUBKTNV-1"><mxGeometry x="40" y="40" width="520" height="400" as="geometry" /></mxCell><mxCell id="windows_host_icon" value="" style="shape=image;imageAspect=0;aspect=fixed;verticalLabelPosition=bottom;verticalAlign=top;image=data:image/png;base64,iVBORw0KGgoAAAANSUhEUgAAADAAAAAwCAYAAABXAvmHAAAD30lEQVR4nO2ZT28bRRiHn3dmd53EcRznj0OcOLYRPVAJLlUPLYeA1EOvIOUr9MCX4FsglY/QCzculQgHqCo1cOFGBaqUUqRChVrHSePdnR8HO6GqlESK425BfqTVWitr5vfMjMf77hr/TWzr7tZcN+2+tKKTnMTWna3pw+SwZrJ6cLYuWYugDkYL0cTbikJ4XJjA5vZmVMtq1X6XujM1ZNYyaCN1wDYkGsASpjkfe2duGFUgCQVhZoxV4OY3N+fitLKYh/6qwzcNtYXeBTZA68KWQTXnXeK84yiNglAAJCSBTu5jJAFtbk71pvZq9H09itXMMv9k9tv7P93auRX/vvv0tovshjItYJRd7LGjgALCYBSlowvnIzojYPQi2q+WfLScpnnDvLVMoY3RJthGj4OGZW4pmKoJ3qeEXV2+fPnaX38nS+gzM1fFQIjQz88d8lSBX26+V2rmC41+FlZj55thELAjWavHwZqHepbl87G3UmyGOY+AYBAkAgaIwyAMZgih1CvHYemg31c+XAJjJGr0F7ZlfBg5V06c4cwDEAQBkcsQIpfIzgpjBJwbb+LXiGJn13IGP5SXIbzJvi+EKB3zFI8bV3SAUZkIFM1EoGgmAkUzESiaiUDRRLEZF3EL583Ipfj4gll8XAaOCXNGlEr3HFwaVcIBhh4Ae3kthT+5J6erGtcdrhnK9dC0SURerfB8xAarwPfPuwYZANtfRB/0nlYYueGTO/y5XO8a24roUeEPjJnTyudT2MdYRZTp8ollANomYpEKTzDK52z3JHoYDcQzutb+8sUPZv6SNNpUm49R1n/w6GnlU20ZPCt9TaSrpBcU+nU8kPMwcj65LgVsWEqeGzPM7DorlAe7gq5jNn/6Y4MREBCzHCm/uCESr4y3SAnAeB5GDAj/g/+BiUDRTASKZiJQNBOBopkIFI0zH4MNypH/Ik5Zeh/oYYbFU1gygyXTg88+BueHgm8nkc9mP+7HL9ciS1fzNG06hQ7O2ii0JWvgqCPNOx8l+BiGr5QIARSQBuchjoOjL7wZTl03V27vxF2uVA+zw2UXaY2QtyR1kHVwNJEahi2iULWpWQuHe7uPepX39ZGVSJPfSKxKxkBnTEojLfz1O5rm2f5CyWkFi5pk+eNfPy//qB1i9pKviLlBags4Zoj5d8sIw0OvnIsQOAvdpcpUaRHZKuTN4cy1ES2CrWNaBpvHkxBxvDqPxQJnzl5hW492iGG2yn6/jlkDaBHoYGojNjBWwZYQc8Q4jireV+XsLd47dY9pwnSNPHsHZ2vI2og2RotAE6cVxO5bK3AaEsZ3VDng4B9fTZUt/W73UQAAAABJRU5ErkJggg==" vertex="1" parent="WIyWlLk6GJQsqaUBKTNV-1"><mxGeometry x="50" y="70" width="48" height="48" as="geometry" /></mxCell><mxCell id="wsl_subsystem" value="WSL (Windows Subsystem for Linux)" style="rounded=1;whiteSpace=wrap;html=1;fontSize=14;fillColor=#d5e8d4;strokeColor=#82b366;verticalAlign=top;fontStyle=1" vertex="1" parent="WIyWlLk6GJQsqaUBKTNV-1"><mxGeometry x="80" y="100" width="440" height="300" as="geometry" /></mxCell><mxCell id="wsl_subsystem_icon" value="" style="shape=image;imageAspect=0;aspect=fixed;verticalLabelPosition=bottom;verticalAlign=top;image=data:image/png;base64,iVBORw0KGgoAAAANSUhEUgAAADAAAAAwCAYAAABXAvmHAAAKXklEQVR4nMWaeXRU9RXHP+/NzmSZIStZa0JIRSgiiwocPUDA0LKIVjmnKlXUIKIV0R6O2hZrT/FIrd2sULAtLYst1FKtPcjiUm2EFpBFIrIFkhBIyDJDtlnfu/1jSMwkQ2ZCRr3n/E5m3vv97v1+f/fe37vvZiD+Mhn4O1APaIAXOAb8Evj6F2AvbqIAPwI8gPQcqqoK0AA88pUhjCLfIwLwzjF9+nSZMGGCKIoiwNPxMqrGSU8OsLyvCSaTieLiYjIyMgCeA0riZDsuspg+dl9VVcnNzRWDwSAGg6Hz+keA6asC3FM20geBywwNuGGghuMVQlmdH6xWK0ajMezmkCFDyMzMJC0tDUVRutu+caCG40XAUlhYyKuvvsqcOXPQdT2kXFW555572LBhA6+88luys3N6rsuNk/0By+4VK1ZIeXm51NaelSlTplw6eaZJQ8MFWbfuj1Je/h/ZsGF99xwQ4HcDNRwXDyiKog0e7OTOO+9g46bXuGXGbMDM6Osm8L+9+7n33vtYvvxZRo8eTXZ2dvelhoHajgsBEfG3trbibvHwz61/Jcu8i588EuQqxy7OVR8A4IMPd3PxYktXeF2SARMwRp8Sk3hOVNaw5sVHyXE9x6TrQJ1mo7XtMGI+SdUiE0OKyzh9upLac+e6r7PFyf6AZfO1hTZp/EuWyDbE/wHiPzBI5MQIkeNOkSpF5GSabH/ZLnZr2FH67kANx8sDrvk3ejD5PASDoQuqMS2kXvXRVg8NnzQwFLBboN3btW4okAi0XqnheB2jze8cMVJZryKAooCm+2hvq6XmaIDGfUKyBh/XZNBwEQoLhzJmzBhUVc0Brh+I4bh5YG99Fof0aVwo/z1DisBqrMPcAeYg+ExZ7LffB2NHkZW9lKamJubPn4/ZbFZ27979ILDrSg3HywO5yYlWssZ+h1bnPM5+aqbxJDS4EjlhKOV45s/IvHY+U6aWsGjRQtxuF+vXr6e6uhrgVgbgBSX6lKgyDPhwyZLH0h9e/DCnTp0m4K5G97Wg2tMZNDifwoI88nJzUFUjLlczY8aM4fTpM911/BuYBgTigKdfkgrsLywskPPnz0kg4JN9+/bK9h07ZNc778qRiiPS1tYiuh6UYNAvwaBfRERWrnwhUnH3zJcN3gZsMxgM8sYbW0VERNMC4vd75fz5WmlqahBdD4qmBbrAhwjoUlV1WhwOR08CPmDWlwVeAdYCMmNGqYjoXUA1LSC6Hgzb9c7rnfd8Po+UlJRE8kIzMKE/QK40icuABwBKS0sBBREBQNM02tvbCQRC4azrOsFgEJ/Ph8fjweVy097ewfjx4yLpdQKbgOxIN+NFIBv4SecXg0GlubmpC7CIEAgEuup+EcHvD9DS0kJtbS2VlZXU1tYyd+5c8vPzgdDrZjfJB356BbhilicURRGLxSJZWVly6NBBCQR8YeHi9XZEDB9NC0hbW4tUVp6UyspTsmXLZjEajeJwOMXpdHYPJT8w9osisDMzM1OMRqOsWbNaRCQMbLTRmQdNTY3S2Nggs2bNFEVRJDs7W9LTM7qT+MMXAX6I1WptzsrKkpEjR4rH09ErWftHRJOtW1+XvLw8mTx5shQVFYnNZuskcAFIjwaovzkwKzEx0VlXV8fChWVYrbae9T1+vz8mRSKCosDEiROxWq0cOHCA5mYXqampnVPSCHX54kbArKrqQhEhKSmJOXNmE9qocFCdyRyL6LpOamoa6elpuN1uOjraGTRoUPcp06Pp6A+BOTab7Tqv18u4cePIyclF04K9JnUep7FIyAsqeXl5Xd97dDTGEqXgjJWAFXhKROjo6GDixAlEKqNC4JXurZOYJCkpCQCLxdozBHMJlSuXlVgJ3AaMttvtWK1Wrr766ssrVPtfH3YSTkiw43K5ut9KBFL6Whvr+8BsgCRnBsnJPtLSIm9KKCT6QUAJ7V9raxsACQkJ1NfXh80gyibHSqBjyrWQ7qzg0PkiUlLSIk4SkdhzQFFQgi4QL81NF7Db7ZhMJjIzMzEYDLS0tOByud0gDTFivLysLuNp/w5EdiM/X2SRhx9ZKl6vV0T0Xk9gt7u5VwUaaQSCmvgq7hfZ65CNP7aJqoQeYIqiiMPhkKlTS+SaoQl7omGLmgPvPUlmyTdYYLIAXnj0dh+f7HyJb8+7C7fbjcHweR2jqiqqGj2tVIOR1sYajpVvAYObC00e9EuO66ydzpw5w+qlHQVyjIK+dPUKoc2bMWRXcEfiIEYEglh0nRmDUyhEB3QwmWHVUrh+8evM+OY5/vyndRQVDUPTAqiqis1mixpGIuDxdNDSooEftB49iY6OdmaMPMmkMaRV7mIe8HzMBHIqmFZwFa9l5AJB0DQwWELgAQjANcPhB3fDU+t2M3VqCWvXruGWW0rRtEDUJFZVlfoL9Zw4VYWqGEGD0lHwRjEcqYHBiXB/CXz/u6H5KVkM71NfrwtG8tMzCDX9TGCwRlilwcK5MKYAampquPXWuWzatDEsnPqSQCCApguqQQGB/BxYuxi2LIO/LYMlt4PRDPggOZWZspNhMRMI+Lng8RL+nhSBgDMFnl0AJhW8Xi9LljxOXd05VDV6u9Nms6FrQXy+UNlhTYT0NBhZAFflgcVxaaIOqDj8Kuu9bxHx4dOLQEsrFy66id6v8MG3boa7p1366vPh9/ujhpCiGAgGg7zy8m9oaW4HBYwWcGRAWhYkp0LYORAAs5XxFicf+XayICqBVi9ajAUlig5P36Xw9JK72L5j52Xro04xGEy43S7Kyh5i19s7SRlEl4cVFZTLOS8IGHCc+oxf/2ouYf8l6ZXERjPXOFOIHDoRFA/NEea272NoYc6l8FHQdb3rJFIUBVUNmTl8+BALFz7Enj17KE6H1MQ+dCvdRgBqK+BgBRVejYuXJfBoKZY0Bw8kDe6mJBoRBYqSjrFxxW3kTvkhkybeiNPppDMG/X4fJ08eY8OGDaxatRq32w1ARhI4EiPovwRa84DXBXX18Ekl2rkmXvcEeHLZm+GN4DACucnkGBVu0F2gW0A1gWokPB96GhRItENy+3+5ffZMMnPyKCoaSkrKYHw+P1VVVRw/fhyPxxO2LMUOFvPngDvBiwYd9XCuEvacQK9282a7n5ee/xcfRtq/MAI1Fzlb1cCL1qPMc9jJTXWAxQqqGRRT6K9q6k3I74Eke6h1XlNTTU1NdSRb4YYN4HGBzwVGK+hB8LWBrxFOVcPbn1Jx/iJPrH6f7X3piXhkzBmFY8oIxqcnM8MxiEl2K8McCSSlJkFyEliSQDGDroG/JeTulf8g+IttrGwPcJDQbyK8hJ4mCYReD/MI/dhjOFA0qZCk5bNgVD7oSkiXosNndfDmId462siCtw8StZCLpfZVZw4npyCDEYl2bkpNZFpRFqNG5GFIsIHHB9s+hk3lrH3/OGWx6ANyr/8aj2U7ePzmYijOBFUJgd9fxaYdZ3jw/Hk6YtB1Rd1p89RhTCnIoCzRxk0NF9FO1fFam5dnDtfTHquS5TdjfO8sywQesJrINRmo13RWbT/KC/SjS/1/ZzJWqQ2tIPUAAAAASUVORK5CYII=" vertex="1" parent="WIyWlLk6GJQsqaUBKTNV-1"><mxGeometry x="90" y="130" width="40" height="40" as="geometry" /></mxCell><mxCell id="fastapi_app" value="FastAPI アプリケーション" style="rounded=1;whiteSpace=wrap;html=1;fontSize=12;fillColor=#fff2cc;strokeColor=#d6b656;verticalAlign=top;fontStyle=1" vertex="1" parent="WIyWlLk6GJQsqaUBKTNV-1"><mxGeometry x="120" y="160" width="200" height="200" as="geometry" /></mxCell><mxCell id="fastapi_app_icon" value="" style="shape=image;imageAspect=0;aspect=fixed;verticalLabelPosition=bottom;verticalAlign=top;image=data:image/png;base64,iVBORw0KGgoAAAANSUhEUgAAADAAAAAwCAYAAABXAvmHAAAGPklEQVR4nO2XW2ycRxXHf2e+b79d79qx4ziN7aa5uFEVpw0SD6hIoAJ9oBWUy0sEUgsogiTkUlJwIydpJctq4nUx0DRNNnLSvrRCiKCUS1sJF0QLhTwQiBLROlVtQdMkLsWOndS7a3u/nTk8rLO2491cntqH/b3NmTMz///M7Jn9oEKFChUqVKhQoUKFjy+pJ7/KweRXPmoZ5ZBr9qaSbXj+T0DBuh+yZee+Yl9Hh2Fx4hP4VAGQzw+zbffgTSs43L2UKTfBw7svAnBk7xJs8Bk0nOS/U6/S2Zmnd08TuYjwcPvQ1cNN2YkPJVeAPIa1jrxV4HF6u5cV+1cQYNwxgshxqmLHMWbPdcWmkm0c7rpjTizkCTzzrWI757VRHT9GvPoVbqnaV8jxvonnHiw1ZXkDyjfwvYU4Z7E2j8girK4r9icWCEqWMPwLudxrKKevawC5G/z43JDeCbpm1sJRMhNvkJ3oQ9jIoeQKPAnLzVjagKoA92Et1dEon2xsljX1DQhyP1eu3Yd5HyMXqJIvseHRe9m6M3ld/UqIDXPFdk9PAqUe5LY5msJcN5vb7wdew3IvcJMG9nc1AK2EoXtg+Spzct16/7ur16L5sJVnuurnGJXAK7YPdK3iyM82sm/WVTuQ/BqpJx/g6FEPVPCD1YXrCdSGtyLyn6KZK3gSnZ7/ZaAFW35PShuI6W2o1KO4u+obJBOG7D/9D4sxDfiydE5udmKmEIjppq6ml0CfBaC3+7PEY7/ByEucf+cWRAzR2DFUfw5A3qxEtR+nWRL5JfN0OBnGUIU3r6eIXzJqTTOGAJFwbf1iOdx/yp0dG3EEQRQxTTB931WVhZMTs1b8E2OXBlD5Dkf2LiHH1xH7Itb1E/MmUVXC/Buo+VshX1ch8jYQx+oy4N9z1TkPhyLli2VpAyL1iBCJBMR8nxfeecv5foS8COTziwAIjCPnahiJP0RvTxbscTbtTAFwMNlC6N+BuHpyk0+w7fFThXi3I539Ptsf6y/ol5XgXgVpwshK4PXCPjgtCDErEC5jKVtuSoedxlGoi0VZs7BBDt3zRa8mFgMFjBTqvk1bkEZqEs9Rk/gFqvfM2oFBLLUoBjGROXMHs9pCM5hzIGeBlpl4JMLT3UtBHkT0TcSVPYLSJwCgjuZ4jSytruHwmVNuLD0OsRjFH1QOA1wik30Oz0whpp+jHQFjic/jtAnP5rHeZUS/B5yYN39Hhw8sIB59n0z2XcR8bnrhkIh3ACEKTlBeB3monMzSJ2AkizpaFy6SoUyag//6p8PzCyfgtHDnvbiH6jBSu5kNj25lU/tJhqN7iMf7CCLrcZIDXiQabCTVvXneGs3UgQakJzwiQRqRxQCIKEZqMTKOyja27BrDlN/ocu/AKFZZW98gqTdPutH0OIiAOvC5WMwTERgrPExPddSBWUc2000u/CuOGra2/5mpqV5Uezjy03rQWQUxUQtyN773FqqvoHo7ICAe+XAbk+k72dL+Qjnh1zZg3ZAYk7NO5dm3T1s8vyBWdQqV90uOCRLLQM+wqX0X6vrAFWp51eQjCAOE4adg1ouq9lYEg2oO1SwiC0gl61BVrP0f2zs/vJ748gacnAsikdGXzg7ywfiV3VcP5SJ+cK7kGM1XoTIMgBBgTKGSrO+cRPkt0Ag4dPo6OFajmiLjtZIwraiexHnLMWIRuUblvxED23eP5Kw9c2LkA8FMp3hGEOlnQ9tYyTGiExgaCmbI4ZzQ0REU+kSAECGPSmMhR1YCA+zYkeHbOzIoQ3h2OQ53o+LLG0BU0b6ieAAxgP6ewk95/vjJ3HmUu+j98dOI+TLiZWis6qC35ylgPcIg6t4jGiRJde9HpAXV92bm5zyYFkQUd1XZFJXpTbhRA4DwS6wdmz5OH2sv4smvrsqaIF5VMNTWOYpoH9WJH+B5n8aYSyjLqFvwCMplchdOA38E1gL3gSbwgxkDxgzgbBPOhYjk56xiJUTJUYLy78DmXe+SSu6d9UGzh007ZxY8l83QHNnE4Gi6GHOTPyIdeRkbXqDh9lOMnB1gPP07NPw725+ZAk5wKPkFnAwTyY8yNDE8YyD7a7T6D7jQkolMzlUpz8/5z3VTpLo+1p+UFSpUqFChQoUKFSp8dPwfqpd7svtiErgAAAAASUVORK5CYII=" vertex="1" parent="WIyWlLk6GJQsqaUBKTNV-1"><mxGeometry x="130" y="180" width="40" height="40" as="geometry" /></mxCell><mxCell id="fastapi_core" value="FastAPI コア" style="rounded=1;whiteSpace=wrap;html=1;fontSize=11;fillColor=#ffe6cc;strokeColor=#d79b00;" vertex="1" parent="WIyWlLk6GJQsqaUBKTNV-1"><mxGeometry x="140" y="200" width="160" height="40" as="geometry" /></mxCell><mxCell id="auth_module" value="認証モジュール" style="rounded=1;whiteSpace=wrap;html=1;fontSize=11;fillColor=#ffe6cc;strokeColor=#d79b00;" vertex="1" parent="WIyWlLk6GJQsqaUBKTNV-1"><mxGeometry x="140" y="250" width="160" height="30" as="geometry" /></mxCell><mxCell id="openai_client" value="OpenAI クライアント" style="rounded=1;whiteSpace=wrap;html=1;fontSize=11;fillColor=#ffe6cc;strokeColor=#d79b00;" vertex="1" parent="WIyWlLk6GJQsqaUBKTNV-1"><mxGeometry x="140" y="290" width="160" height="30" as="geometry" /></mxCell><mxCell id="database" value="SQLite データベース" style="shape=cylinder3;whiteSpace=wrap;html=1;boundedLbl=1;backgroundOutline=1;size=15;fontSize=12;fillColor=#f8cecc;strokeColor=#b85450;" vertex="1" parent="WIyWlLk6GJQsqaUBKTNV-1"><mxGeometry x="380" y="200" width="100" height="120" as="geometry" /></mxCell><mxCell id="database_icon" value="" style="shape=image;imageAspect=0;aspect=fixed;verticalLabelPosition=bottom;verticalAlign=top;image=data:image/png;base64,iVBORw0KGgoAAAANSUhEUgAAADAAAAAwCAYAAABXAvmHAAAHBUlEQVR4nM2aS4wcVxWGv3NvVb9mPPYQBWEJS1iRHCKRXXYxBGcBErGEyIaNIawQyposEEijkdggyDoK2zhCsCAbR3hBZEVxJBYBFrGIMhKKSWzF9mhe7anuqrqPw6K6a2penofHnv6l7q6u+/r/+zjn3FslHBBzc9cS/9TsGdNqnwN9BiPnBM6CnFblCRFOoPQQEhEjAKpRUTzCQJX7Iiyh8Q5iPos+LijxE7z/NPnvyhfz8xf8QfjIfjL9+k8fn7HGnkeS74I+J8JZkFmbpIgIqjr6RFBFFUC3NSUCiCBiEJG6bPAOYEVVbwr6kapcK3L34e9e+dbnhxYw9+ZHvXCqe9FKcklFvp222qdEDDF4Ygxo1B1IHhaCGMEYi7EJqpFQFquKfBBieXn4+a13X3/t+9n+BMzNmd888+NLSZL+0ibps4gh+BKN8YjI7g9iDDZpgUaCczd8cL//7Sd/vsz8/CYimwT86i//erJF782k1f1RNbTlYyW9G2zSQozgi+E76/nSL17/6fP3xmm1gLm3/jGj7ZPvtrsz58t8wNFNj6OC0Or0KIbr16WQl+Z/cq4PYMbJMZl5td2bOV/mGZNHHkAp84x2b/p8TMpXx3drASLyYgzheLgdADEEROyL4/+1gFA4M5k9vxU64lqhvsjvrhBdoDLWEwoRog/kd1fqWxtrYODIby+h3oOZQBFGUO/Jby0RB66+nTQzhKzA3RzS/uoMyYleJSQe87QacfBrGcW9PiaaTR2cNPOKCFp68lvLmF5GOjtFMt1BEjtaHvrol4mMvgTUB3w/x61kxEFRJaftTdmT7RVU6uKgoBgUlC2LneqQTHUw3RYmsWAEgVHMA4cSJvUXIqPiUYkuEIclPssJ6znqwiZeW7FdwBYhWkZ8keFXMrAG00ownRTTTqvr1CLWIMZUZRrEtqMSqqoQIhpiRbj0xMIRc0csPYRYKRLZ06jsLqAW0lAflTgsiYOyrh8jFXlb/Yo11QywdmOIRNAQKvIhVnFV0Oo3VtGrNNuqO2Jv7C1gmyAZT9EKCuojeFAaofz2aHr7nzq8PjCLGgcXsBNk28W+e/BhYfbOMtmoBZT5Go+t2x4KMuJaoRawfG8B5waITO6giBicG7B8b6G+V7MtinUW79zAlRliLJM1GoIYiyszFu/coCjW65R6ERuxlHmfO7f/zcnZbzA98zWMSYFY2e1jgFR2mhgd91dus7ZyEzRgxNZ5toQS1f53efFT1vu3mT5xmu70k6Rpl2pE4i4nDkdGeWRSDaB4N2SQLbLe/5KyWEcQbJICG/uWHUMJQSiLjOViAbvyP9qdk3R7X6HVPUmadjEmGQkaC9HNYcUeJEfNsDFNq7pi9LhySJ6vkWfLFPkaIRSA2XVt7uoHquGzxOgYZIsMskVELEnaIW31SFtTpGmPJO1gbQtjEsTYUTkZdURDkupIaERjIEZPCCXe5Tg3wJUZrhzgXY5qqDlIY7ocSECzx0Q2qLiyagzu1WkiFjEWYywiCcaMe2yjnGokxojq+FwpoBpG60tHecf17d8SHtgT1z3cgGpEQyB42M8U2pg+zc45HI4mlAA2E3t8mFyvtU9shBJueJw8DoQm11pA1l/C+/Kh5+SjhIjgfUnWX6rvbZxKREd/9S6uzHdcqMeLarG7Mqe/epcYdziVqI7OHWurd+h2Z+j0ZrC2Sj6uUGLsS0Lw5IM+w2Efs8XMbrFCAhoZZKvk+TrtzhTt9jRJ2qqn1qMNJWi0o3hXUOTrlHlGCL5K2+IjdjSjIoLGwDBbIx/0SZIWaatL2upgk9bIYW31BbB/Ydu3kapKjIHgS1yZ48oh3peoav00Zyc80A+MC3lX4FyBDEDEYm2CTdIqhLAJxo69sNm0fsZtNuOk8aOoGAMxBGLwhOAIviQEP/LO403+3o5uf46sGddorAVtEjoKApvXzWBIq/OUSkDjuq6jVnywTf7hPHFDUI0RsQdPpc2ljsJkNwToEdrNR22CN7jWS1qbu4QJR5Nr8wnNe2ImPzQSYxCR98b/a8at4N4IvrxebdkmEzZJ8b683grujfG9WsDVq2/3W9G8HIL/qzEWM0GjYYzBGIv37h0XzctXr77dH6fttNrkwg9euSRiXjNinq2c8+M/mRAZHRorRI0fawx/uPa3s5fhAQ+6m7h48ee9gZYvoXIJ+I4x5lT1bkOs3404csKjOKfyynFV4IMIl6dMeuXKlT8Odiy3n8q/98OfnfHePA/xgqo8J6pnEWaraVadKIzt/15+YLxr29i9KTFGUFZU5DOBfypcs8Z/+Pcrbx3+ZY/d8MILc0nn1M2vF16eNvBNlKdVOSvCaeAJRU+IShchpemLFaeiQ4H7IEsoX6pwE2RBRf+TGr9Q9p/64v335w/0us3/AVpieUoTbmkQAAAAAElFTkSuQmCC" vertex="1" parent="WIyWlLk6GJQsqaUBKTNV-1"><mxGeometry x="410" y="230" width="40" height="40" as="geometry" /></mxCell><mxCell id="azure_cloud" value="Microsoft Azure" style="ellipse;shape=cloud;whiteSpace=wrap;html=1;fontSize=16;fillColor=#e1d5e7;strokeColor=#9673a6;verticalAlign=top;fontStyle=1" vertex="1" parent="WIyWlLk6GJQsqaUBKTNV-1"><mxGeometry x="600" y="120" width="240" height="200" as="geometry" /></mxCell><mxCell id="azure_cloud_icon" value="" style="shape=image;imageAspect=0;aspect=fixed;verticalLabelPosition=bottom;verticalAlign=top;image=data:image/png;base64,iVBORw0KGgoAAAANSUhEUgAAADAAAAAwCAYAAABXAvmHAAAFv0lEQVR4nO2Ye4hVRRzHPzNz5py9aqtJD3v4h5SCZbqRCkZa0QuLCEm3VMpHmZmupAbirtvFdNciKIpSN0UKqbarvelBCBb1R8SGua5JEBQJ/ROlmLb3nsdMf1z37l13795zrjf6w/3AgXvn/M7M9zszZ+Z3BoYYYoghzg+2H55CW4eudrWi2hX2o63zZrTbSJg9yrIpaxDCVrN6p5qV9aGt6yYk6xDyXkwkiJyqi4f/wsCuzhlYtQ7sfTjaQUjInd7HirofAWhsvwuhammZt7cazclqVALAzq7p7Ox6B+RXaH0/WIfAh9A3SPVqb4uyAWGfJ72nthrNnvsI7OiciqPWYrkfrV2CHPjZM7W7EOa+ZdTkrwHY+Na1IG7D9WrIsRrYcq7NVz4Cu45cz66uPSj5DY6eD8bFz4ItmuZCAGIb9SICwDrL0G4NgQ9CrKPpvavOUX8FI7D94BVotwWox3FTfXq8GOWAn/2ZQH0IwIa3LkWwgCgAa0B7o/BzzwALz8VA8hEQ8iVqhi/C2lS/Hi9GaRBiF6smnTrzfwHauxhj8vdDH5R6gA1v31apeEhqoO3QbLSeQ/ff+V4sWasCv/tPcsEeANZkUli7DBP1xlgLUiqUaqXhU68S8ZDEQOa3FNCKkLJkr/fguGBpp+GG3wEYIe/G0ROJwr5xYQDanU7tqaUJdReIb+DE8eV4qTpCf/A4ISDI5sC2AZBOS0y0suSeH0UgxEbSmTGxtRQRz8Brh64EuYEwKB/reGDs5yyfchiAYOJ0pJrZr/d7MBFo93Ii2xhXdDHxDFjRjFtzSZ85PCACosAi6d24hFiBo51Bp13og1DLaM7cEEtPEeUN7Ph+BkotJhhgqTwbR4MJOzD+lwA0ZcYhxJyyI2ctKKcGa1tJ20QLy+DB6QMOwmlFOW7ZFxfObFxsY/nUHsVL0N4Fg65YPYQ+KH0n0b655YN7GdzA5RfNx/VuIciVr0k5EGR/JZV6D4D0+6MQdnHJuV8Su5n1mZFxo0sb2Nk1GuymwsZTjvzGtZuHJpwEIMrNRXtjy783RUQhaG8CmifjPlLagI2ewkuNi9WDUoLffQIlXgcgfaAGxIrY5osJAxBiDRv3jY8TPrCB7V3XIGQDYYypA/ml07KXpdcdAyD6YzyI6xP1fg/WgOOOxISb44QPbEBGW9DeiFg9KAQEvg92R6FMHTmK5WUcN57oswl8cNy5NGfuKNt8v5K2zntw1MdERkCMlUd7kOv+jMfr7u5TviaTYjifoN1bCcrs3gPhaAiDDtTpmWxaUnIN7zsCbR3DwLYiVDzxkN9JlXylX/mL9d0E0VLC4Biqgu+mfJ40lWD4o4OFnTWFnBV4qcll851CuIYwOMhIuX/A+8/N/xUjlmJNDlHBt1MUgRRNNL57WamQ3lp3Hx6LUOtj5TuFpxVIsYP6SaUdt8zdjzFNFY1CPk8agwg3lpRQ+BWYNG7NxbFXjvwX1zECyp8ubJ73AmHwJrqCtD/0QapHaG6fNtDtvIG2wzeinIdj5Ts9KA2WN3hi8vGysUJYQr+BwP8BJ+HhXD5P8rCylUxGnX1b5o/7TAvK0bHyHchvXEH2JMLsji3k2YXHiYJFRNFfyH46BiefJ93OIVvfTwrSXc2wC25BSHBr4l3DasGYD3is7pdEQrYu6CQMVwLmTOKXAAtCPEP6/VHFpQ7W1pI9/SrWxD/2iyIwantCBXm2PthOU6YO11sfK0kstBmC9q7G714LPN1T/N8f7g5EOuMS8hGud1ciE0KCtSfBTmdL/U9QzaPFJGyq93FYQBgcSfQ+WAParcXaQp6UbATSmdGE3IFAQAWZZh9kCHYWUq3CmAQ6BAhpMGY2LfO+SGaguX0a0v0OKUsfaCXBRFSUcisNkd/BhWJW8u1RyPwVN1caVIiEhCtqAT1iKsf/aUxmQMpjhNnG/+vV6UPoC4Q59X/LGGKIIc53/gUZM/zVavSD/wAAAABJRU5ErkJggg==" vertex="1" parent="WIyWlLk6GJQsqaUBKTNV-1"><mxGeometry x="620" y="150" width="48" height="48" as="geometry" /></mxCell><mxCell id="openai_service" value="Azure OpenAI Service" style="rounded=1;whiteSpace=wrap;html=1;fontSize=12;fillColor=#e1d5e7;strokeColor=#9673a6;" vertex="1" parent="WIyWlLk6GJQsqaUBKTNV-1"><mxGeometry x="650" y="200" width="140" height="60" as="geometry" /></mxCell><mxCell id="openai_service_icon" value="" style="shape=image;imageAspect=0;aspect=fixed;verticalLabelPosition=bottom;verticalAlign=top;image=data:image/png;base64,iVBORw0KGgoAAAANSUhEUgAAADAAAAAwCAYAAABXAvmHAAAN2klEQVR4nM2aaXAVV3bHf/d291v0tPDQvi9ISEiABoERGDAQY8D22HEcZ0ImiWN7MjM1qfK4Ek+lUvMllS8pV6WSCvFUpRySiT84KQ/j8mRswxjsMXjBLAZhrUhol572fX9Ld9986KdnFkkgTFw5Ve/D63dv3/Pvc+7/nv/pJ1jGfvDaa8aatfoBW/AMip0ochTKK1BiuTn3wxRCCcQCggCC81Ly1uSI+eG//fCHkaXGL+nMy7/8j0elED9V8KCmSaksG6UUSqn/S9+/ckoI56NJLMu2heA8Eevv/+HI90/eNvbGLy8ePep2Zfle0aT2YymlNCNLgv7GTTcMbMtSlrKPhvvn/ubVl14KLf4WA/DiyaNu90zc6y6v50gkFP7GnvbdmhAC3e0iEgq/GfLNPvfqYw4IuTjANRP3iuH1HAkHQ1/LeaUUdvRzPx+CUopIMIThdh1xzcS9snhdAPzVWz8/pAlxEtuW97KoQmFaNgLwGC48hgshIGRGWAiHsZWNLjWE+Pr7XwiBkNI2I+qxfzrywinxt8ePu2aZOmsYrp33kvOmbWFInbLMHL6VW0TO2lR8bjcCQTASZnBqgvq+LuoCXcyFghia9rVB6IZBJBI+H0/SPvGT48cOI+UJbCXvPPVmi1gmeWvTePJbOyhOy1xx7ND0BO/VfkF9XydSSBROpKUQCCGXpsOVTAob235cR4jvaJomLdtctfMVWfn88Y79xLncAAQmRrk20Mvw9CQKSI5PoDQ9h6LUDNIT/Ty/+wDv1l7i+mAf8R4Plm0zvTDPxPwsEctcVZppmiYtS31HvHz8WLMmtVLbtu/aedO2yPWn8qN9j+F1uZkLBXm39iI1Pe2EIhEWfVDKydnyzFz+qHofCR4vALZSyOigkBlhcGqCqz3tXO5qZS4URL+LNJNSYtlWiy4Q2avZuAqFoek8XfVgzPmff3aa1uF+XJqOS9ejzisilkVKfCIV2fm4deOrxYXAVjZCSNy6QX5yGvnJaewoKuPtms+5PhTA0PSV/VAKgcjWFcrLXfpv2TYhM8K2ghIKUtIBeK/uEq3D/TEHFWBaJnEuD/vLNrO3dBPxbufJTwfnudrdzvWhPiYX5tClRnriGipzCinPyiMjyc/39hzkvy+epba3Y0UQSikUeFaGecNg07bJTPKzMbuA6qJSAAYmx7nS3YYrupBpW0gh2ZK3joMVVWQmrQWc/XKho4UzzbWMzc5EN66TQl1jQ3zRdZ2KrHye2bqbNXE+jmzfy/jcDIGJUXS5UjopcUcAlm3jMQwer6hiZ9EGPMZXqXB9qI9QJIJL17Fsm/zkNA5VbGVDZm5sTFN/D6caa+geG0KTEl2TWLaNFAIpJFr0LK0LdDK9MM8P9j5KvNvDk5U7eO3j20qf22xFAJZtk+iN49mdD1OUmgFAOMoWUgiGZiYRAkzLYmtBMX/4wN4Yzw9MjXO6sYa6QBe2stGkhmlbZCatpSA5jbbhAUZmpjA0h3ncukHX2BCnGi7z+1t3U5yexbq0LK4PBVaMwrIAlFK4dJ0/2bE/5vzFzhYud7Xywq6DeF0urChzKRTr07MxNI3Z0AIft9Rzrq2J+XAIXWoopfAYBrtKKtm7fhM+t4ephXnONNdyoaOZYCSMoem4NJ2a7nb2lVWS7EtgU3Y+LYO99xYB07Y4UL6F4rQsAE41XOFE/Rck+xKX5Go7ymQft9Rzsv4yXsOFEAIFVOUXc7C8iowkf2xskjeOp7bsZFtBCe83XKGpvweAuXCQjpEBkn0J5PhT7rAHlgFgK8VaXwJ7SioAqO3t5P3GK+hSosllDmy1CNzJb9O2KEjJ4HBFFWXRPTEwNc5v6i8zFwpyeOM2StKzyPGn8Od7DlEX6OR0Yw3tI4OMzkwDEOf2YGg6Ectc9oBbEoBlW5Rl5uJzewhbJqebagBWPCXVDXOTvD4Ob9rKzqINMcCfXG/gndoLREwTKSSvfXKSqrxiHinfQmpCEptzCinNyOFsSz3xbo9zT6ViJcdytkwKCYpSnLwPjI8yODWBLjVsdefTujKniP2llfh98Vi2jWlZ6JpGRVYeY7PTXOxsIRgJg4JLnS009ffw0PqN7CmpwOtyc6iiKlaGTy3MEbEcwKsCoEmJ3xcPOEWYaVsxrr+TrYsWdc2DAd6vv4wCHt24lbLMXH6v6kEeKFzP6cYaGvq6kUKyEAlzov4LanraeaR8C1V562KRHpmZImJZuPVVAhBREODk9GpsZGaK3zRcoba3IxaxY5+eojK3kEc3biPHn8ILuw9S39fF6cYaesdH0KXG8PQkb5z/iNreDv5g2x4SPF4qcws5336N/snxZffeklctZTMXcmSnP87HrcXu4jdbKUzbuum3z9qauNjR7EhAqcUqzIsdLXzW1hQbtym7gBcffpKntuwkwe1xRI+m8WVvB6+f+4D5cIh4t5fHN29npQJ1SQC2UvRNjAKQuzaNBI83RpOWbce21UMlFVRk5WNaVgyIAHRNuwnyrdca+rq40NGMS9PZV7qZlw48xfbCUmylcOsGrcP9fNh0FYDSjBzy1qbFzpy7AiCF4NpAb4yvtxWUxDbTdHCet2vOMTE3Q+7aVH6073H+dOfv4I+LX/4x3WIT83O8cf4j/vXsCXrHR/D74nm66kESPXHYysbQdC53tTK1MI8Ugg2ZuVjLEMiSAHSp0TM+QstgAIAD5VsoScsiZEaQQnCps4V//vDXnGmuI2yaVBeVsTE7H1isRq2byO/Wa7rU0DWNxv5uPmltBEAgYnkuhWAmuEDv+AgA2f6UmH64KwDgcPCJukvMBheIc7l5btcjbMlbh2k5FedsKMj/fHmeV3/7DvWBrti83cXlVBeVRitYJ7WUUlQXlbK7uPy2B7Xo2K1sb6OYmJ8FwOdyoy1DpctyoyYlPeMj1AY62VVcToLHy3O7DnC1u53TTVcZmBpHlxp9k2P857kPqMjO41DFVnL8KTy782GaC2+n0dXaYhlhKWffLRWDFcnd0DRSE5KAqAISgqr8YjZk5vFpawOftjYwHVzAkBr1gS5ah/rZXljK3vUbKcvIoTg1EyGc1JiYn2V8boZ1qSuL/xudT09aA8Dk/KxTgi8hNVdMIUPTWeP1AXCu7RqnGq8QMiN4XS4OVlTx44d/l+rCUqdXg2AhHOLztiYaooXZorY919bEP556m9rejrty3im7/eT6UwBoHxnk9iSLAl3pRoKvlNNMcJ53ai9SF+jiUEUVm3MKSU1I4rvV+3igcD3vN1zG5/JweOM2stY4Sqx5IMCpxit0jg5i2Y4muJMtlhGPlFdhaDpzoSDXBnqXnbssACEEEctkLhQkNSGJlIRE3LrOwOQ4r5/7kPKsPA5trCLXn0pJWhbr9j8R25BD0xOcbrxKbW8HVrQrF7Es9CjLLHcwWbaNads8vukBKnMLAfi0tZGJuZll9fGKETBti8DEKAUp6RSlZuJzeQiZEYQQNPR10Tbcz46iMvaXbSbJ62M+HOJsSx3n2pqc9khUzLgMnX1lm9m7fhPAkpSolCIlIZHDm7ZSXeho7rbhfs621N2bIgMnCvV93ewqqSDZl0BV/jo+vt6AWzcwNB3TsjjTXEdDXzfFaZl0jQ0xEK1cF8XM7QLf4vpQHwKBQsW4320YfP+hw7GisWNkkDcunCFsmstrkDsB0KVG+3A/bUP9lKRncWjjNrrHRugaG8KtGwghcOk6E/OzXOhodkS703AiPzmdQxVVlGflxe53baCXU41X6BkbQdc0wqZJeuIawImKS9MJRiKcb7/GB001BCORFZ2/IwBwOPid2gv8xf5vE+/28MKeg7x1+TMa+7tRSt1QqwtMyyY5PoH9ZZXsKCqN5e3A1ERU4HfGOtVKKdyGwfr0bABGZ6e52NFCfV8Xg1MTaCupv9UA0KVG7/gIv7j0Md+t3scar4/v7T5I00APtb2dDE1PxlTY+vRstuSvI9ETB8BsKHiDwA+iazq6cPI5bJnsKiyPpda7tRe53NUaTc+772Drzgs1Ec8K7UVD0/myt5P5cIinq3aRkeSnIiufiiyn/rGVfZNqCpsmX3Rd50xLHSPTTutkMRpKKcKWSUlaFk9Ubgegc3SIawO9eF0uxCr71FIJ1bdcoXQzCI3WoX5e/egdfnX1PN1jw4Si7xOkkLFyG5yGbWNfd0ycm7ZFxDIJmyZSSh5cV84Luw8S5/KwEA7xq5rPHeG++iY74idv/vvrmlv/Mytyd+31xSLN0HT8cfEkeuPQpGQ2uMD6jByeqNwei0bHyCAtQwHGZmcQQFriGjZk5pITPWHnwyH+68IZGvu779jMXdIXlKVbqOPCtJ5lmVeutyEWAkPTUcDY3DQjs1POdQR9k2OMzkzx7crtpCf6KUrNiDXFbrX24QF+/eUFesaH78n5RdPNxPnfajNxl3SXq3o1r5gEIIRE3gBbQ1Lf103H6CCbcwrZlF1ARpIfj+FCKcVcOEhgfJQveztoHggQsc2v5fyiH/zlm8ceMwz9PWXb4n68WVxMMykkXpcLt26gFAQjYYKRMArQNXlPOX/TOigrdoeXf3HsX9xez4vhYGilOatfRH3VmnKidv/+qaBQVoz74uf1v46Ewr90edz3dREhRLSVLu7rfRctBuDvnn8+GDcrnw0HQz8TUqIZXy83vylb+s8ebx17QqL9FKWqpa4JZdkOz/8/+/vBTXvgVnvx6FG3J9N3SAnxDLATpbIB7zfn3p1Noaz/BQfvG38SiszIAAAAAElFTkSuQmCC" vertex="1" parent="WIyWlLk6GJQsqaUBKTNV-1"><mxGeometry x="670" y="210" width="40" height="40" as="geometry" /></mxCell><mxCell id="client" value="クライアント" style="shape=umlActor;verticalLabelPosition=bottom;verticalAlign=top;html=1;outlineConnect=0;fontSize=12;" vertex="1" parent="WIyWlLk6GJQsqaUBKTNV-1"><mxGeometry x="40" y="500" width="30" height="60" as="geometry" /></mxCell><mxCell id="client_icon" value="" style="shape=image;imageAspect=0;aspect=fixed;verticalLabelPosition=bottom;verticalAlign=top;image=data:image/png;base64,iVBORw0KGgoAAAANSUhEUgAAADAAAAAwCAYAAABXAvmHAAAJ6klEQVR4nN2Ze3RUxR3Hf7+Zua/dJeRhkHdFFPSAooKa4oNQ9RQtFRANag1UlAWliFKjGOxJOW0EpZQD2iNJrTXqUWrkVVCDr6C1VC0UEFQOAtGIQAgh7937mvn1DyQGshuyyx497fefuzvz+818P3tn7szcBfgfF6aikei4SWchaMMV0rlEYDLEGk6wvVY2bOuzfn0kFX3E02kB1E/45SUmYCEB3WgwrkWk7wOQL5CZOhfgSLWPCJYdrpclA94rs1Nlur2SBmiYEJ5lcL6YSLVKks8Qwt9dBVUGCJdQZTKgSxFwakDTcyNS/sP11OSMtSVfptA7ACQJUD9x1oPddWNRq+es8RBnZ5Yvq44X23Dzvb/QUSuRAF87wK49o3zJN8nb7aiEAerzCkYbjL/rSH/F3n1Nk0dsKfVOlVM7cXauJYwKV8l3MqD6Riwvl8nZ7SiWSDCFw5oP2iIbRBW4wXu6Yh4AIHvl0o0RxR4KGmk3HMHBP0/OamwlBFDb3GekpXcb7iJ/LGPt/IZEcrMDRmmjD1USxSxK0dMPIEEAH/XrWxVGUQ+uT7QjLJtv+6C9SswY+eUtT5yZaH48JQSgUL/QQ21fj7KCmmQ6k9z8WNOCpjDwR8nkx5JIJFihkUZIjQhIyXSmmNmgGAcpWSiZ/FhK8A4YTQrM7gSU1BgmFOkSDVCotSSTH0sJAUimfwLcOPvLKc8lNYYl0y+LELOR618lkx9LCQKIN3Q9zfLRGptoR5tuWWwRmjdL1DYNKLszqTkUSwkBNGmDNzX7cgvyQOHWKavTE8nNCJ01LWBkDFCoPQkASc2hWEoIYETpCI8w8CDTAgMCurl8c7hE60rejrvW5Rp62hONvv/a4Ga1LjmrsZUQAADA+X+5fmOr9AssI2NSEAaV7wy/1b+z+E/Db99hat3XuyD2gaGFsTwvZdsIgNNYEbdP23ivIYwFilREIpUpgtfA96pI6C5TkIkMLkWAfI54LZF6N+o6dw1/9pqUTd7jShqgckqVmW4dflDj4ndBLQCu9CDqRX0C8AXjZlAPAAJCs9uy3fVx6ojSEf9JpfHjShhgc/izXlyT9yDSXRx5b196NQrkLgawh4DqAJiHgCEA6EuI5yHAuQCoIfK3Fcgllzw17I0fCgC3zPx8Gufi9wwx25f+OkXqr4yJDy55clBtrISdRaQ7h3ech0KMB2J3m5rVz5HOWtvxCn5cMuSL7w1g6+yqdKnw6aARvDXqtbzjKu/RnCcHfZhIR5vDe7uDhWEGvAiR2VHPmTbyT+esTs72dzolwL/uO3SmYLRKcG2k40Uerj7Yb3FeOSb9JPnnfXuG6iz4rODapREvOv2KZf1Kk20L4BQAm8NHu3tB9brG9RG223L7lct6rzydzo6rcnZVusW6vWBo1thWO5J/5bLsF5NtK+46QETY1E09jXpgZKt0U2YeAGD00gENjcy7tUW6bzLTKql84EhOsm3FvQNvFNTdnWal/7k5cvSRMX/IXphsB53p9YeO5OjceEsqr0YCvcSQNQHCHp/R1rHFmV1aM2ICrCmo7c0NfYdS/nbnoszr8vKSH/OxtHJe7U80pj0ARNcQkQVEUSACAjAMPcBc3/YA8U2f/D9OLM5+t7O2Yh5oogYUGBrrHlH+nDtSaP6FWbvTtIwzFnHNDDu+c5AULUOSFYhelaJQhDE/4IEzgBiMQQaTNRF6Z8Vvj5Z6dKQgf/6gplhtdrgDzxUe6cMtscvz3dVT5/eYnCrzZY/tz0IZWqkLY5TnRh9X0ciiKQv71sWNn7s/i1mBAk23HnY9+30S7KYphd07xHeYxHYIJ3m6CNkmLk2V+aKinboNgTLfEFc1+c235xdlzj3Z/KJfHwy2/z5lYd+6/KLMuY2q+Tbf1K60ST7/StFOvVOAoiJiUabuaFL25hr7jK2pAki3et6LwW4/a/KjM8O/6fHyyfWLF9QMM3qaWxcvqBl2ct30eT1WNPnRmRhKu+GA2XNmpwCBQO1AXxfDHEGvzp+PKhXmi4sPZHsae7Tea6y4vzB7eawYT+M9yAqc62m8R6z6+wuzl9d7DRWuwecVL23KjgsQ1SjH1QWzNeh05iciGdIm+JaZFRGsOF6MI0i1oAuOoLg/WkSwYmkaWZ5ybmpffgKALfDyZoo2RCy++/StH1OUwbgm2bL3oLXvo3gxNgDY/Ng1ng5aGR81yta9toBx7ctPAHAEDLEF7n18embj6dk+pllLdxtRARfYAj4qnT4i7ntU1wBpi2PXeDGl09FzOHzscLpg1lIyjpe3rQOjiipFVGBfBNqeCvMAAIoFQh6HDARoe/0eXl4zRphmofJdBt8OmBakdA4uSEFPzSitbQAAAAbAhK6U6xcvD2dtAACwOVUTYgYPNoUAwDkBYGC/oZbDIB0IDqQKwDZDJLkHSN+tN0oX5CGARADgx8oIAJABkDpxYeIIQO2WWvvbz367mLZqT9N1H5wgIHTpTUNX9E3kcGtGeno9ALYd/J+ZmrUBADa0j5v0Qm2upumVnmf/6m/52RvjtWcL7A9A9bo62nq8rG0OEEbsqKDPPcucMWHF0Q3jXz48dszS3UbsprqmitmDHJvTDpvTZeGSzXF/GBuA25zAbrsnHRUuIc3mdJktaEfZnQPa5nsbwIuTe7Xamhxjk/OIw2mIDIbWYa/MbWNerZ17/arDg5KFsDVc44UCA6szzr48Xowjjg0Pp5NXzV+lHcjxQoGBDqe17ctPeApV5PWuXZ+XvbC1pWmo7UbudAWr8zVtgQ24K3dV7fu5q+rmjFpdc1HOK9VWVwF8R74UUc5+h/nz4sW4OjLH0MDVMe75xNX0wlZy6hQLrGpffsoj5dVrDl8sCScS4ngUfAgggvS9agLaQsD+jYw+ZZK+ViTrgWFU05RSrqZJTkFSLAtA9eOEc0SwW47X3HDPhzf17LAaX7GyZhhpWjkjuPmDcZmfnFyfs+bQDC2U8bRsqZ+zaXzPJQkBHNeoykrREhl2PoK8mghGA8BwAurPdIuRkqA8hwDQISBCRI6IOopjey/l2o3IeCswdqaSbv62sT077IcufP5g8JPJvVpPLr9o7aHbuBV4kVynwo7UTPgsb6ibFMDJOuf13UYQu/VSkvcnhv0QqAcBpBEQB0IbEOsBsYYQ9oMvqxVHZMheYqaVK53o48TsRbuui7+dPu+t/VmozAJuWA+TY78nWXRirPiU/dnWFQ1e83k3P5j1BJjWDOU6h5RSzwPKCkTax3yMKmFYRM7ZQHwM4yyfaUYvcOxSdOsL9tzQxQPN96E+lbW5ADiHkH6KuqErO6II0EEgg5kBRo7jIcMN4HtLvrmmV6cbyx8E4Lgy3qvrx0hdjIzOIaI0IGoGwb9QxLfVX5UZ99///yv9FxDqT48U8i74AAAAAElFTkSuQmCC" vertex="1" parent="WIyWlLk6GJQsqaUBKTNV-1"><mxGeometry x="35" y="450" width="40" height="40" as="geometry" /></mxCell><mxCell id="db_connection" value="" style="endArrow=classic;startArrow=classic;html=1;rounded=0;" edge="1" parent="WIyWlLk6GJQsqaUBKTNV-1" source="fastapi_app" target="database"><mxGeometry relative="1" as="geometry"><mxPoint x="390" y="450" as="sourcePoint" /><mxPoint x="440" y="400" as="targetPoint" /></mxGeometry></mxCell><mxCell id="azure_connection" value="" style="endArrow=classic;startArrow=classic;html=1;rounded=0;" edge="1" parent="WIyWlLk6GJQsqaUBKTNV-1" source="openai_client" target="openai_service"><mxGeometry relative="1" as="geometry"><mxPoint x="390" y="450" as="sourcePoint" /><mxPoint x="440" y="400" as="targetPoint" /><Array as="points"><mxPoint x="360" y="305" /><mxPoint x="360" y="360" /><mxPoint x="600" y="360" /><mxPoint x="600" y="230" /></Array></mxGeometry></mxCell><mxCell id="client_connection" value="" style="endArrow=classic;startArrow=classic;html=1;rounded=0;" edge="1" parent="WIyWlLk6GJQsqaUBKTNV-1" source="client" target="fastapi_app"><mxGeometry relative="1" as="geometry"><mxPoint x="390" y="450" as="sourcePoint" /><mxPoint x="440" y="400" as="targetPoint" /><Array as="points"><mxPoint x="170" y="530" /></Array></mxGeometry></mxCell><mxCell id="db_label" value="SQLAlchemy ORM" style="text;html=1;strokeColor=none;fillColor=none;align=center;verticalAlign=middle;whiteSpace=wrap;rounded=0;fontSize=10;" vertex="1" parent="WIyWlLk6GJQsqaUBKTNV-1"><mxGeometry x="320" y="230" width="60" height="30" as="geometry" /></mxCell><mxCell id="api_label" value="HTTPS / REST API" style="text;html=1;strokeColor=none;fillColor=none;align=center;verticalAlign=middle;whiteSpace=wrap;rounded=0;fontSize=10;" vertex="1" parent="WIyWlLk6GJQsqaUBKTNV-1"><mxGeometry x="450" y="330" width="100" height="30" as="geometry" /></mxCell><mxCell id="client_label" value="HTTP / REST API" style="text;html=1;strokeColor=none;fillColor=none;align=center;verticalAlign=middle;whiteSpace=wrap;rounded=0;fontSize=10;" vertex="1" parent="WIyWlLk6GJQsqaUBKTNV-1"><mxGeometry x="100" y="500" width="100" height="30" as="geometry" /></mxCell><mxCell id="legend" value="凡例" style="swimlane;fontStyle=0;childLayout=stackLayout;horizontal=1;startSize=30;horizontalStack=0;resizeParent=1;resizeParentMax=0;resizeLast=0;collapsible=1;marginBottom=0;whiteSpace=wrap;html=1;fontSize=12;" vertex="1" parent="WIyWlLk6GJQsqaUBKTNV-1"><mxGeometry x="600" y="360" width="240" height="150" as="geometry" /></mxCell><mxCell id="legend_1" value="Windows ホストシステム: 物理マシン" style="text;strokeColor=none;fillColor=none;align=left;verticalAlign=middle;spacingLeft=4;spacingRight=4;overflow=hidden;points=[[0,0.5],[1,0.5]];portConstraint=eastwest;rotatable=0;whiteSpace=wrap;html=1;fontSize=11;" vertex="1" parent="legend"><mxGeometry y="0" width="240" height="30" as="geometry" /></mxCell><mxCell id="legend_2" value="WSL: Linux 仮想環境" style="text;strokeColor=none;fillColor=none;align=left;verticalAlign=middle;spacingLeft=4;spacingRight=4;overflow=hidden;points=[[0,0.5],[1,0.5]];portConstraint=eastwest;rotatable=0;whiteSpace=wrap;html=1;fontSize=11;" vertex="1" parent="legend"><mxGeometry y="30" width="240" height="30" as="geometry" /></mxCell><mxCell id="legend_3" value="FastAPI: Python Webアプリケーションフレームワーク" style="text;strokeColor=none;fillColor=none;align=left;verticalAlign=middle;spacingLeft=4;spacingRight=4;overflow=hidden;points=[[0,0.5],[1,0.5]];portConstraint=eastwest;rotatable=0;whiteSpace=wrap;html=1;fontSize=11;" vertex="1" parent="legend"><mxGeometry y="60" width="240" height="30" as="geometry" /></mxCell><mxCell id="legend_4" value="Azure OpenAI: マイクロソフトのAIサービス" style="text;strokeColor=none;fillColor=none;align=left;verticalAlign=middle;spacingLeft=4;spacingRight=4;overflow=hidden;points=[[0,0.5],[1,0.5]];portConstraint=eastwest;rotatable=0;whiteSpace=wrap;html=1;fontSize=11;" vertex="1" parent="legend"><mxGeometry y="90" width="240" height="30" as="geometry" /></mxCell><mxCell id="title" value="EM_test_project システムアーキテクチャ図" style="text;html=1;strokeColor=none;fillColor=none;align=center;verticalAlign=middle;whiteSpace=wrap;rounded=0;fontSize=20;fontStyle=1" vertex="1" parent="WIyWlLk6GJQsqaUBKTNV-1"><mxGeometry x="160" y="10" width="400" height="30" as="geometry" /></mxCell></root></mxGraphModel></diagram></mxfile>